<?xml version="1.0" standalone="no"?>
<!DOCTYPE svg PUBLIC "-//W3C//DTD SVG 20010904//EN"
 "http://www.w3.org/TR/2001/REC-SVG-20010904/DTD/svg10.dtd">
<svg version="1.0" xmlns="http://www.w3.org/2000/svg"
 width="333.000000pt" height="333.000000pt" viewBox="0 0 333.000000 333.000000"
 preserveAspectRatio="xMidYMid meet">
<metadata>
Created by potrace 1.11, written by Peter Selinger 2001-2013
</metadata>
<g transform="translate(0.000000,333.000000) scale(0.100000,-0.100000)"
fill="#000000" stroke="none">
<path d="M30 1701 c0 -1099 2 -1221 16 -1221 9 0 12 -5 8 -12 -5 -10 -4 -10 6
-1 11 10 17 9 32 -4 15 -13 21 -14 31 -4 9 10 9 11 -4 6 -10 -4 -20 -2 -24 4
-9 15 28 14 44 -2 9 -7 11 -8 7 0 -4 7 6 11 29 11 22 0 33 -4 28 -11 -4 -6 -1
-7 8 -1 23 14 62 17 53 3 -5 -8 -3 -9 7 -3 23 14 49 15 49 1 0 -9 2 -9 8 0 8
13 29 12 51 -1 9 -6 12 -5 8 1 -5 7 6 11 28 11 22 0 33 -4 28 -11 -4 -6 -1 -7
8 -1 23 14 62 17 53 3 -5 -8 -3 -9 7 -3 25 15 48 14 61 -4 7 -9 20 -18 28 -20
8 -1 4 7 -10 18 l-25 20 23 0 c12 0 22 -6 22 -12 0 -9 3 -10 8 -2 4 6 39 10
87 9 60 -1 85 2 99 14 11 9 16 10 12 3 -4 -6 -2 -12 3 -12 6 0 11 7 11 16 0
22 27 48 33 31 3 -6 6 -2 6 11 1 25 4 26 34 11 20 -9 20 -9 5 4 -22 17 -24 31
-4 24 11 -4 13 -1 9 10 -4 11 -2 14 5 9 7 -4 12 -1 12 7 0 7 11 24 24 36 22
21 25 21 34 6 8 -16 9 -16 15 -1 4 10 3 15 -3 11 -6 -3 -10 1 -10 10 0 11 5
15 15 11 8 -3 22 -9 30 -12 8 -3 15 -1 15 5 0 6 -3 10 -7 10 -19 -3 -33 2 -33
12 0 5 5 7 10 4 6 -3 10 1 10 9 0 9 5 17 10 17 6 1 14 2 19 3 5 0 13 5 18 10
5 5 2 6 -5 1 -11 -6 -12 -3 -3 13 6 12 16 24 23 28 6 4 8 3 5 -3 -4 -6 -1 -13
7 -16 9 -4 12 0 9 12 -7 27 67 102 95 96 12 -2 22 1 22 7 0 5 -7 8 -15 4 -23
-8 -18 2 16 35 16 16 35 26 41 23 7 -4 8 -2 4 4 -4 7 -2 12 3 12 6 0 11 8 11
18 0 14 2 15 10 2 8 -12 10 -11 10 7 0 12 4 25 10 28 5 3 7 0 4 -8 -3 -8 -2
-17 3 -20 4 -3 9 6 9 20 2 23 40 61 56 56 4 -2 4 5 1 14 -4 10 -2 14 5 9 6 -3
13 3 17 14 7 22 31 27 38 8 4 -10 6 -10 6 -1 1 6 -4 15 -9 18 -18 11 8 33 33
29 12 -2 16 -2 10 2 -18 8 -16 21 2 21 8 0 15 -5 15 -10 0 -6 3 -7 6 -4 4 4 2
13 -5 20 -9 11 -7 17 5 28 20 16 21 16 40 -8 14 -17 14 -16 5 4 -15 30 -14 43
5 43 9 0 12 5 8 12 -5 7 -3 8 7 2 20 -12 38 -14 44 -4 3 5 -4 7 -15 5 -11 -2
-20 0 -20 6 0 9 13 13 40 10 13 -2 13 -1 0 8 -8 5 -18 7 -24 4 -5 -3 -6 -1 -2
5 4 7 14 12 22 12 19 0 65 -41 58 -52 -3 -5 -1 -7 4 -6 11 4 82 -66 82 -82 0
-6 3 -9 8 -7 9 6 72 -59 65 -67 -4 -3 1 -6 10 -6 15 0 21 -11 18 -32 0 -4 7
-4 16 -1 13 5 15 2 9 -12 -4 -11 -4 -17 -1 -13 10 9 55 -33 55 -51 0 -14 1
-14 10 -1 8 13 10 13 10 -1 0 -9 7 -20 16 -23 8 -3 12 -11 9 -16 -4 -6 -1 -9
7 -8 7 2 12 -3 10 -10 -1 -8 2 -11 6 -8 12 7 44 -28 35 -39 -5 -4 -3 -5 3 -2
14 8 57 -41 48 -55 -5 -7 -3 -8 5 -3 16 9 55 -31 45 -47 -5 -7 -3 -8 5 -3 15
9 55 -31 46 -45 -4 -6 -3 -10 2 -9 23 4 35 -2 29 -17 -3 -8 -2 -13 2 -10 12 7
64 -43 56 -55 -3 -5 0 -8 8 -7 7 2 12 -3 11 -9 -2 -7 1 -12 6 -10 4 1 34 -24
65 -55 32 -32 62 -59 67 -59 5 -1 14 -2 19 -3 6 0 15 -8 21 -16 9 -13 10 -12
5 3 -4 12 0 17 13 17 11 0 22 -6 24 -12 4 -10 6 -10 6 0 1 6 13 12 27 12 16 0
23 -4 18 -12 -5 -7 -3 -8 7 -2 23 14 49 15 49 1 0 -9 2 -9 8 0 8 13 29 12 51
-1 9 -6 12 -5 8 1 -5 7 6 11 28 11 22 0 33 -4 28 -11 -4 -6 -1 -7 8 -1 23 14
62 17 53 3 -5 -8 -3 -9 7 -3 23 14 49 15 49 1 0 -9 2 -9 8 0 8 13 29 12 51 -1
9 -6 12 -5 8 1 -5 7 6 11 28 11 22 0 33 -4 28 -11 -4 -6 -1 -7 8 -1 23 14 62
17 53 3 -5 -8 -3 -9 7 -3 25 15 48 14 61 -4 7 -9 20 -18 28 -20 8 -1 4 7 -10
18 l-25 20 23 0 c12 0 22 -6 22 -12 0 -9 2 -10 8 -2 9 15 57 13 57 -3 0 -6 3
-15 7 -19 4 -3 6 3 3 15 -4 21 10 30 17 10 2 -6 2 21 0 61 -3 54 -1 75 9 81
11 7 11 9 1 9 -18 0 -11 58 8 72 13 8 12 9 -2 5 -15 -5 -17 4 -16 74 0 52 4
79 12 79 7 0 7 3 -1 8 -15 10 -14 223 2 234 7 5 7 8 -1 8 -6 0 -11 43 -12 121
-1 66 2 118 6 115 5 -3 9 1 9 9 0 8 -3 12 -7 10 -13 -8 -11 217 2 233 8 10 9
13 2 9 -9 -5 -12 31 -11 134 0 107 4 142 14 146 7 3 10 10 7 15 -4 6 -9 5 -14
-2 -5 -8 -8 2 -8 24 0 24 4 34 11 29 7 -4 6 0 -1 10 -20 24 -13 229 8 239 12
5 12 7 -3 7 -19 1 -20 32 -3 60 6 10 5 12 -3 7 -8 -5 -11 10 -10 58 1 42 5 63
12 59 6 -4 7 -1 1 8 -15 25 -14 41 4 35 14 -5 14 -4 -1 8 -21 16 -19 48 3 58
12 5 12 7 -2 7 -15 1 -18 11 -18 67 0 47 3 63 12 58 7 -5 8 -3 2 7 -13 21 -11
32 6 47 13 11 13 11 -1 7 -11 -4 -15 1 -15 20 0 19 4 24 16 20 10 -3 9 -1 -3
9 -20 16 -19 53 2 48 7 -1 10 2 6 8 -3 6 -10 8 -15 5 -4 -3 -8 20 -9 51 0 31
-2 58 -3 60 -4 3 -124 -109 -508 -476 -32 -30 -129 -122 -216 -205 -86 -82
-170 -162 -184 -177 -15 -16 -32 -28 -39 -28 -6 0 -35 24 -65 53 -50 48 -271
258 -386 367 -158 149 -188 177 -207 193 -21 18 -22 17 -75 -35 -53 -51 -326
-312 -512 -490 -50 -48 -94 -88 -98 -88 -13 0 -273 261 -270 271 1 6 -2 8 -6
5 -12 -7 -188 164 -184 178 2 6 0 8 -4 3 -4 -4 -35 19 -68 52 -34 33 -99 97
-146 141 -47 45 -124 120 -172 167 l-88 86 0 -1222z"/>
<path d="M3274 2599 c-3 -6 -2 -15 3 -20 5 -5 9 -1 9 11 0 23 -2 24 -12 9z"/>
<path d="M3270 2309 c0 -5 5 -7 10 -4 6 3 10 8 10 11 0 2 -4 4 -10 4 -5 0 -10
-5 -10 -11z"/>
<path d="M3270 2029 c0 -5 5 -7 10 -4 6 3 10 8 10 11 0 2 -4 4 -10 4 -5 0 -10
-5 -10 -11z"/>
<path d="M3270 1990 c0 -5 5 -10 11 -10 5 0 7 5 4 10 -3 6 -8 10 -11 10 -2 0
-4 -4 -4 -10z"/>
<path d="M3275 1839 c-4 -6 -5 -12 -2 -15 2 -3 7 2 10 11 7 17 1 20 -8 4z"/>
<path d="M3270 1710 c0 -5 5 -10 11 -10 5 0 7 5 4 10 -3 6 -8 10 -11 10 -2 0
-4 -4 -4 -10z"/>
<path d="M3270 1551 c0 -6 4 -13 10 -16 6 -3 7 1 4 9 -7 18 -14 21 -14 7z"/>
<path d="M3270 1311 c0 -6 4 -13 10 -16 6 -3 7 1 4 9 -7 18 -14 21 -14 7z"/>
<path d="M3270 1269 c0 -5 5 -7 10 -4 6 3 10 8 10 11 0 2 -4 4 -10 4 -5 0 -10
-5 -10 -11z"/>
<path d="M3270 1230 c0 -5 5 -10 11 -10 5 0 7 5 4 10 -3 6 -8 10 -11 10 -2 0
-4 -4 -4 -10z"/>
<path d="M1518 1183 c7 -3 16 -2 19 1 4 3 -2 6 -13 5 -11 0 -14 -3 -6 -6z"/>
<path d="M1456 1132 c-3 -5 1 -9 9 -9 8 0 12 4 9 9 -3 4 -7 8 -9 8 -2 0 -6 -4
-9 -8z"/>
<path d="M3275 1130 c-3 -5 -1 -10 4 -10 6 0 11 5 11 10 0 6 -2 10 -4 10 -3 0
-8 -4 -11 -10z"/>
<path d="M1440 1070 c-9 -6 -10 -10 -3 -10 6 0 15 5 18 10 8 12 4 12 -15 0z"/>
<path d="M1375 1030 c3 -5 8 -10 11 -10 2 0 4 5 4 10 0 6 -5 10 -11 10 -5 0
-7 -4 -4 -10z"/>
<path d="M1350 1012 c0 -5 7 -9 15 -9 8 0 12 4 9 9 -3 4 -9 8 -15 8 -5 0 -9
-4 -9 -8z"/>
<path d="M3296 963 c-6 -14 -5 -15 5 -6 7 7 10 15 7 18 -3 3 -9 -2 -12 -12z"/>
<path d="M1255 910 c3 -5 8 -10 11 -10 2 0 4 5 4 10 0 6 -5 10 -11 10 -5 0 -7
-4 -4 -10z"/>
<path d="M3270 900 c0 -5 5 -10 11 -10 5 0 7 5 4 10 -3 6 -8 10 -11 10 -2 0
-4 -4 -4 -10z"/>
<path d="M1235 890 c3 -5 8 -10 11 -10 2 0 4 5 4 10 0 6 -5 10 -11 10 -5 0 -7
-4 -4 -10z"/>
<path d="M1174 849 c-4 -7 -3 -9 4 -5 5 3 13 0 15 -6 4 -9 6 -10 6 -1 1 17
-16 25 -25 12z"/>
<path d="M1155 821 c-3 -5 0 -13 6 -17 7 -4 9 -3 5 4 -3 5 0 13 6 15 9 4 10 6
1 6 -6 1 -14 -3 -18 -8z"/>
<path d="M3279 828 c-5 -19 -8 -50 -4 -46 7 7 15 48 9 48 -2 0 -4 -1 -5 -2z"/>
<path d="M1135 790 c3 -5 8 -10 11 -10 2 0 4 5 4 10 0 6 -5 10 -11 10 -5 0 -7
-4 -4 -10z"/>
<path d="M3270 750 c0 -5 5 -10 11 -10 5 0 7 5 4 10 -3 6 -8 10 -11 10 -2 0
-4 -4 -4 -10z"/>
<path d="M3275 650 c-3 -5 -1 -10 4 -10 6 0 11 5 11 10 0 6 -2 10 -4 10 -3 0
-8 -4 -11 -10z"/>
<path d="M957 632 c-10 -10 -17 -23 -17 -28 0 -5 5 -1 11 9 6 9 14 15 18 13 4
-3 8 1 8 9 0 19 -1 19 -20 -3z"/>
<path d="M3270 589 c0 -5 5 -7 10 -4 6 3 10 8 10 11 0 2 -4 4 -10 4 -5 0 -10
-5 -10 -11z"/>
<path d="M3270 551 c0 -6 4 -13 10 -16 6 -3 7 1 4 9 -7 18 -14 21 -14 7z"/>
<path d="M167 453 c3 -7 6 -13 8 -13 2 0 5 6 8 13 3 8 -1 14 -8 14 -7 0 -11
-6 -8 -14z"/>
<path d="M350 460 c-9 -6 -10 -10 -3 -10 6 0 15 5 18 10 8 12 4 12 -15 0z"/>
<path d="M407 453 c3 -7 8 -13 12 -13 4 0 8 6 8 13 0 8 -6 14 -13 14 -7 0 -10
-6 -7 -14z"/>
<path d="M480 461 c0 -6 4 -13 10 -16 6 -3 7 1 4 9 -7 18 -14 21 -14 7z"/>
<path d="M536 455 c-3 -8 -1 -15 4 -15 6 0 10 7 10 15 0 8 -2 15 -4 15 -2 0
-6 -7 -10 -15z"/>
<path d="M2550 460 c0 -5 5 -10 10 -10 6 0 10 5 10 10 0 6 -4 10 -10 10 -5 0
-10 -4 -10 -10z"/>
<path d="M2616 453 c-6 -14 -5 -15 5 -6 7 7 10 15 7 18 -3 3 -9 -2 -12 -12z"/>
<path d="M2664 455 c-10 -8 -14 -15 -8 -15 6 0 17 7 24 15 16 19 9 19 -16 0z"/>
<path d="M2731 461 c-8 -5 -9 -11 -3 -15 5 -3 12 1 16 9 6 17 6 18 -13 6z"/>
<path d="M2910 460 c-9 -6 -10 -10 -3 -10 6 0 15 5 18 10 8 12 4 12 -15 0z"/>
<path d="M2972 463 c-6 -2 -10 -9 -6 -14 8 -14 21 -11 21 6 0 8 -1 15 -1 14
-1 0 -7 -3 -14 -6z"/>
<path d="M3040 461 c0 -6 4 -13 10 -16 6 -3 7 1 4 9 -7 18 -14 21 -14 7z"/>
<path d="M3096 455 c-3 -8 -1 -15 4 -15 6 0 10 7 10 15 0 8 -2 15 -4 15 -2 0
-6 -7 -10 -15z"/>
</g>
</svg>
